<svg xmlns="http://www.w3.org/2000/svg" width="373" height="373"><g fill="none" fill-rule="evenodd" transform="translate(0 -13)"><circle cx="186.5" cy="199.5" r="186.5" fill="#45D8E4"/><path stroke="#FFF" stroke-linecap="round" stroke-linejoin="round" stroke-width="55" d="M110 209v-67c0-42 77-42 77 0v67-67c0-42 77-42 77 0v67"/><circle cx="147" cy="150" r="21" fill="#45D8E4"/><circle cx="227" cy="150" r="21" fill="#45D8E4"/><path fill="#45D8E4" d="M270 348c12 11 42 19 91 22-21-23-29-55-22-95l-69 73Z"/><path stroke="#FFF" stroke-linecap="round" stroke-width="40" d="M104 274c20 29 48 43 83 43 36 0 64-14 83-43"/></g></svg>